<?xml version="1.0" encoding="utf-8"?>
<!-- Generator: Adobe Illustrator 24.0.2, SVG Export Plug-In . SVG Version: 6.00 Build 0)  -->
<svg version="1.1" id="Capa_2_1_" xmlns="http://www.w3.org/2000/svg" xmlns:xlink="http://www.w3.org/1999/xlink" x="0px" y="0px"
	 viewBox="0 0 655.1 107.8" style="enable-background:new 0 0 655.1 107.8;" xml:space="preserve">
<style type="text/css">
	.st0{fill:#FFFFFF;}
	.st1{fill:#C9C5C2;}
	.st2{fill:url(#SVGID_1_);}
	.st3{fill:url(#SVGID_2_);}
	.st4{fill:url(#SVGID_3_);}
	.st5{fill:url(#SVGID_4_);}
	.st6{fill:url(#SVGID_5_);}
	.st7{fill:url(#SVGID_6_);}
	.st8{fill:url(#SVGID_7_);}
	.st9{fill:url(#SVGID_8_);}
	.st10{fill:url(#SVGID_9_);}
	.st11{fill:url(#SVGID_10_);}
	.st12{fill:url(#SVGID_11_);}
	.st13{fill:url(#SVGID_12_);}
	.st14{fill:url(#SVGID_13_);}
	.st15{fill:url(#SVGID_14_);}
	.st16{fill:url(#SVGID_15_);}
	.st17{fill:url(#SVGID_16_);}
	.st18{fill:url(#SVGID_17_);}
	.st19{fill:url(#SVGID_18_);}
	.st20{fill:url(#SVGID_19_);}
	.st21{fill:url(#SVGID_20_);}
	.st22{fill:url(#SVGID_21_);}
	.st23{fill:url(#SVGID_22_);}
	.st24{fill:url(#SVGID_23_);}
	.st25{fill:url(#SVGID_24_);}
	.st26{fill:url(#SVGID_25_);}
	.st27{fill:#343433;}
	.st28{fill:url(#SVGID_26_);}
	.st29{fill:url(#SVGID_27_);}
	.st30{fill:url(#SVGID_28_);}
	.st31{fill:url(#SVGID_29_);}
	.st32{fill:url(#SVGID_30_);}
</style>
<g>
	<g>
		<g>
			<path class="st0" d="M2.5,5h31.7c3.4,0,6.4,0.9,9,2.6c2.6,1.8,4.5,4.1,5.8,6.9c1.3,2.9,2,5.9,2,9c0,3.4-0.8,6.6-2.4,9.8
				s-4,5.7-7.2,7.6s-7.1,2.9-11.6,2.9c-2,0-4.9-0.4-8.6-1.2l-3.3-9.1c2.8,0.8,5.1,1.3,6.8,1.3c2.4,0,4.5-0.5,6.3-1.5
				c1.8-1,3.1-2.3,4-3.9c0.9-1.6,1.3-3.3,1.3-5.1c0-2.5-0.8-4.7-2.4-6.6c-1.6-1.9-3.8-2.8-6.7-2.8H16.3v55.6H2.5V5z"/>
			<path class="st0" d="M67.1,4.3v66.3H53.2V4.3H67.1z"/>
			<path class="st0" d="M75.1,24.4c2.8-0.8,6.1-1.6,9.7-2.2c3.7-0.6,7.3-0.9,10.8-0.9c2.7,0,5.3,0.2,7.7,0.6c2.4,0.4,4.6,1.1,6.4,2
				s3.4,2.2,4.5,3.8c1.1,1.6,1.8,3.5,1.8,5.8v36.9h-13.3V45.8c-1.5,1-3.4,1.8-5.6,2.5c-2.3,0.7-4.6,1.5-7.2,2.4
				c-2.5,0.8-4.4,1.8-5.8,3c-1.3,1.2-2.1,2.7-2.3,4.7c0.1,1.9,0.9,3.4,2.4,4.3c1.5,0.9,3.3,1.4,5.4,1.4c1.5,0,3.2-0.2,4.8-0.7
				c1.7-0.4,2.9-0.8,3.7-1.2l-1.6,8.4c-4.2,1.1-7.8,1.6-10.7,1.6c-5.6,0-9.8-1.4-12.8-4.4c-3-2.9-4.4-6.3-4.4-10
				c0-1.5,0.1-2.6,0.2-3.3c0.7-2.2,1.8-4.1,3.3-5.6c1.5-1.5,3.3-2.7,5.3-3.7c2.1-0.9,4.4-1.7,6.8-2.4c2.5-0.7,5.8-1.4,9.9-2.4
				c5.3-1,7.9-2.9,7.9-5.6c0-1.1-0.5-2.1-1.4-3.1c-0.9-1-2.1-1.7-3.5-2c-0.9-0.2-2.2-0.3-4-0.3c-2.7,0-5.7,0.4-9.3,1.2
				c-3.5,0.8-6.8,1.8-9.9,3L75.1,24.4z"/>
			<path class="st0" d="M153.9,22l1.6,10c-4.9-1.7-9.2-2.5-12.8-2.5c-2,0-3.6,0.3-4.8,1c-1.2,0.6-1.8,1.5-1.8,2.5
				c0,1.9,1.9,4.2,5.6,6.7c9.9,7.1,14.9,13.4,14.9,19.1c0,2.7-0.9,5.1-2.7,7.1c-1,1.8-3.1,3.1-6.2,4c-3.1,0.9-6.8,1.4-11,1.4
				c-5.8,0-11.1-0.7-15.9-2.2l-1.5-10.7c1.8,1.1,4,2,6.6,2.7c2.6,0.7,5,1.1,7.2,1.1c2.2,0,4.1-0.3,5.6-1.1c1.5-0.7,2.2-1.7,2.2-2.9
				c0-1.8-1.1-3.8-3.2-6c-0.9-0.9-2.9-2.4-5.7-4.6c-2.9-2.1-5.2-4-6.9-5.8s-2.9-3.7-3.5-6c-0.4-2.1-0.6-3.2-0.6-3.4
				c0-4.1,1.8-7.1,5.5-9c3.6-1.9,8.2-2.8,13.7-2.8C144.3,20.6,148.8,21.1,153.9,22z"/>
			<path class="st0" d="M204.9,59.1l-1.6,10c-1.4,0.6-3.6,1.2-6.7,1.8c-3.1,0.6-6.3,0.9-9.6,0.9c-4.8,0-9.3-0.7-13.5-2.2
				c-4.2-1.5-7.6-4.1-10.4-7.9c-2.7-3.8-4.1-8.9-4.1-15.3c0-0.4,0.1-1.2,0.2-2.4s0.2-2,0.2-2.7c0.4-4.2,1.9-7.9,4.4-11
				c2.5-3.1,5.6-5.5,9.3-7c3.7-1.6,7.6-2.4,11.7-2.4c4.1,0,7.9,0.9,11.5,2.6c3.6,1.7,6.5,4.3,8.7,7.7c2.2,3.4,3.3,7.5,3.3,12.3
				c0,0.6,0,1.3-0.1,2.2c-0.1,0.9-0.1,1.6-0.1,2h-35.7c0,0-0.1,0.2-0.1,0.4c-0.1,0.3-0.1,0.4-0.1,0.5c0,5,1.6,8.6,4.7,10.8
				c3.1,2.2,7.1,3.3,11.8,3.3c2.8,0,5.6-0.4,8.7-1.1C200.5,60.8,203,60,204.9,59.1z M194.9,40.4c0-2.2-0.5-4.1-1.3-5.7
				c-0.9-1.6-2.1-2.9-3.6-3.7c-1.5-0.9-3.2-1.3-5-1.3c-3.1,0-5.9,0.9-8.3,2.7c-2.4,1.8-3.8,4.5-4.1,8H194.9z"/>
			<path class="st0" d="M210.7,70.5V22h13.8V29c2.3-2.9,5-5,8.1-6.5c3.1-1.4,6.4-2.2,9.6-2.2c6.7,0,11.7,1.3,15.1,3.9
				c3.4,2.6,5.1,6,5.1,10.1v36.2h-14V39.7c0-2.6-1.1-4.7-3.3-6.3c-2.2-1.6-4.8-2.4-7.6-2.4c-3.4,0-6.4,1.1-8.9,3.4
				c-2.6,2.3-3.9,5.5-4.1,9.9v26.2H210.7z"/>
			<path class="st0" d="M305,22.9l1.6,11.5c-4.7-2-9-3.1-12.8-3.1c-3.2,0-5.9,0.7-8.2,2.2c-2.3,1.5-4,3.3-5.1,5.7
				c-1.1,2.3-1.7,4.8-1.7,7.4c0,2.8,0.6,5.4,1.9,7.9c1.3,2.5,3.2,4.5,5.7,6c2.5,1.5,5.6,2.3,9.2,2.3c2.5-0.1,6-1,10.2-2.8l-0.9,10
				c-5.1,1.8-9.8,2.6-14,2.6c-3.9,0-7.5-0.7-10.7-2.2c-3.2-1.5-5.9-3.5-8.1-6c-2.2-2.5-3.9-5.4-5.1-8.6c-1.1-3.2-1.7-6.4-1.7-9.7
				c0-3.3,0.6-6.4,1.7-9.4c1.1-3,2.8-5.7,5.1-8.1c2.3-2.4,5.1-4.3,8.6-5.6c3.5-1.4,7.4-2.1,11.9-2.1C295.7,20.9,299.8,21.5,305,22.9
				z"/>
			<path class="st0" d="M309,3.5h13.9v9.9H309V3.5z M309,22h13.9v48.5H309V22z"/>
			<path class="st0" d="M330.9,24.4c2.8-0.8,6.1-1.6,9.7-2.2c3.7-0.6,7.3-0.9,10.8-0.9c2.7,0,5.3,0.2,7.7,0.6c2.4,0.4,4.5,1.1,6.4,2
				c1.9,1,3.4,2.2,4.5,3.8c1.1,1.6,1.8,3.5,1.9,5.8v36.9h-13.3V45.8c-1.5,1-3.4,1.8-5.6,2.5c-2.3,0.7-4.6,1.5-7.2,2.4
				c-2.5,0.8-4.5,1.8-5.8,3c-1.3,1.2-2.1,2.7-2.3,4.7c0.1,1.9,0.9,3.4,2.4,4.3c1.5,0.9,3.3,1.4,5.4,1.4c1.5,0,3.2-0.2,4.8-0.7
				c1.7-0.4,2.9-0.8,3.7-1.2l-1.6,8.4c-4.2,1.1-7.8,1.6-10.7,1.6c-5.6,0-9.9-1.4-12.8-4.4c-3-2.9-4.4-6.3-4.4-10
				c0-1.5,0.1-2.6,0.2-3.3c0.8-2.2,1.9-4.1,3.3-5.6c1.5-1.5,3.3-2.7,5.4-3.7c2.1-0.9,4.4-1.7,6.9-2.4c2.5-0.7,5.8-1.4,9.9-2.4
				c5.3-1,7.9-2.9,7.9-5.6c0-1.1-0.5-2.1-1.4-3.1c-0.9-1-2.1-1.7-3.5-2c-0.9-0.2-2.2-0.3-4-0.3c-2.6,0-5.8,0.4-9.3,1.2
				c-3.5,0.8-6.8,1.8-9.9,3L330.9,24.4z"/>
		</g>
		<g>
			<path class="st0" d="M220.8,78.8L225,95h0.1l4.4-16.3h10v25.9h-6.3V86.1H233l-5,18.5h-6.5l-4.9-18.5h-0.1v18.5h-5.8V78.8H220.8z"
				/>
			<path class="st0" d="M243.1,91.7c0-8.6,5.9-13.4,14.6-13.4s14.5,4.8,14.5,13.4c0,8.6-5.9,13.4-14.5,13.4
				C249,105.1,243.1,100.3,243.1,91.7z M250.8,91.7c0,4,2.3,7.7,6.9,7.7s6.9-3.7,6.9-7.7c0-4-2.3-7.8-6.9-7.8S250.8,87.7,250.8,91.7
				z"/>
			<path class="st0" d="M273.2,78.8H296v5.6h-7.5v20.3h-7.7V84.3h-7.6L273.2,78.8L273.2,78.8z"/>
			<path class="st0" d="M297.1,91.7c0-8.6,5.9-13.4,14.5-13.4c8.6,0,14.5,4.8,14.5,13.4c0,8.6-5.9,13.4-14.5,13.4
				S297.1,100.3,297.1,91.7z M304.7,91.7c0,4,2.3,7.7,6.9,7.7s6.9-3.7,6.9-7.7c0-4-2.3-7.8-6.9-7.8C307,84,304.7,87.7,304.7,91.7z"
				/>
			<path class="st0" d="M330,78.8h13c6.4,0,8.9,2.8,8.9,7.9c0,3.1-2,5.3-5.3,6.6c1.8,3.9,3.5,7.9,5.3,11.4h-8.2
				c-1.7-4.9-3.4-9.8-5.4-14.5c0.7,0.1,1.3,0.2,1.9,0.2c2.1,0,4.4-0.8,4.4-3.4c0-2.8-2.4-2.8-3.5-2.8h-3.8v20.4H330L330,78.8
				L330,78.8z"/>
			<path class="st0" d="M354.8,97.8c1.9,1,4.2,1.8,6.3,1.8c1.2,0,3.4-0.2,3.4-2c0-3.3-9.3-5.9-9.3-12.5c0-3,2.2-6.7,8.9-6.7
				c2.2,0,4.4,0.3,6.5,0.7l0.8,6.1c-1.7-0.8-3.6-1.3-5.4-1.3c-1.2,0-3.2,0.5-3.2,1.9c0,3.8,9.3,5.6,9.3,12.3c0,3.5-2.5,7.1-9.3,7.1
				c-2.4,0-4.9-0.4-7.3-0.9L354.8,97.8z"/>
		</g>
	</g>
	<g>
		<g>
			<path class="st1" d="M522.1,2.8c-71.9,0-129.5,21.6-129.5,48.6c0,26.9,58.1,48.5,129.5,48.5c71.4,0,129.5-21.8,129.5-48.6
				S593.5,2.8,522.1,2.8z M650.8,47.6c0,0.2,0.1,0.5,0.1,0.7C650.9,48.1,650.8,47.9,650.8,47.6z"/>
		</g>
		
			<radialGradient id="SVGID_1_" cx="602.5519" cy="-1032.1504" r="353.2852" gradientTransform="matrix(1.5825 0 0 -1.5431 -432.4192 -1054.3323)" gradientUnits="userSpaceOnUse">
			<stop  offset="0" style="stop-color:#101638"/>
			<stop  offset="0.5368" style="stop-color:#14153D"/>
			<stop  offset="0.7" style="stop-color:#161440"/>
			<stop  offset="0.9045" style="stop-color:#1E2756"/>
			<stop  offset="0.9129" style="stop-color:#1D3A6C"/>
			<stop  offset="0.9318" style="stop-color:#1B6298"/>
			<stop  offset="0.9464" style="stop-color:#1A7AB4"/>
			<stop  offset="0.955" style="stop-color:#1A83BE"/>
		</radialGradient>
		<path class="st2" d="M522.1,4.8c-70.4,0-127.5,20.8-127.5,46.6c0,25.8,57.1,46.6,127.5,46.6c70.4,0,127.5-20.8,127.5-46.6
			C649.6,25.6,592.5,4.8,522.1,4.8z"/>
		<g>
			<g>
				
					<linearGradient id="SVGID_2_" gradientUnits="userSpaceOnUse" x1="635.4911" y1="-2250.9292" x2="635.4911" y2="-2109.9336" gradientTransform="matrix(0.7 0 0 -0.7 77.0033 -1474.6437)">
					<stop  offset="0" style="stop-color:#161440"/>
					<stop  offset="0.4643" style="stop-color:#181744"/>
					<stop  offset="0.809" style="stop-color:#1C1E4C"/>
					<stop  offset="0.8458" style="stop-color:#1C2656"/>
					<stop  offset="1" style="stop-color:#1D437F"/>
				</linearGradient>
				<path class="st3" d="M404.7,53.2c0-21.3,52.8-38.6,117.9-38.6c59.9,0,109.4,14.6,116.9,33.6c-5-19.9-55.7-35.6-117.5-35.6
					c-65.1,0-117.9,17.4-117.9,38.8c0,1.7,0.3,3.5,1,5.2C404.9,55.4,404.7,54.3,404.7,53.2z"/>
				
					<linearGradient id="SVGID_3_" gradientUnits="userSpaceOnUse" x1="637.7839" y1="-2250.9478" x2="637.7839" y2="-2109.9482" gradientTransform="matrix(0.7 0 0 -0.7 77.0033 -1474.6437)">
					<stop  offset="0" style="stop-color:#161440"/>
					<stop  offset="0.4643" style="stop-color:#181744"/>
					<stop  offset="0.809" style="stop-color:#1C1E4C"/>
					<stop  offset="0.8458" style="stop-color:#1C2656"/>
					<stop  offset="1" style="stop-color:#1D437F"/>
				</linearGradient>
				<path class="st4" d="M643.4,46.5c0.5,1.6,0.8,3.2,0.8,4.9c0,23.5-54.7,42.5-122.2,42.5c-60,0-110-15.1-120.3-34.9
					c7.8,20.7,59.1,36.7,121.1,36.7c67.5,0,122.2-18.9,122.2-42.2C645.1,51.1,644.5,48.8,643.4,46.5z"/>
			</g>
			<g>
				
					<linearGradient id="SVGID_4_" gradientUnits="userSpaceOnUse" x1="667.3727" y1="-2222.959" x2="667.3727" y2="-2124.1304" gradientTransform="matrix(0.7 0 0 -0.7 77.0153 -1471.7847)">
					<stop  offset="0" style="stop-color:#161440"/>
					<stop  offset="0.4643" style="stop-color:#181744"/>
					<stop  offset="0.809" style="stop-color:#1C1E4C"/>
					<stop  offset="0.8458" style="stop-color:#1C2656"/>
					<stop  offset="1" style="stop-color:#1D437F"/>
				</linearGradient>
				<path class="st5" d="M544.8,55.5c-2.7,2.9-2.9,6.5-1.2,8.2c0.6,0.6,1.4,0.9,2.2,0.9c-1.2-1.5-1.7-4.4-0.3-6.7
					c-0.3-0.7-0.3-1.5-0.2-2.2C545.5,55.4,545.1,55.2,544.8,55.5z"/>
				
					<linearGradient id="SVGID_5_" gradientUnits="userSpaceOnUse" x1="709.1449" y1="-2222.948" x2="709.1449" y2="-2124.1501" gradientTransform="matrix(0.7 0 0 -0.7 77.0153 -1471.7847)">
					<stop  offset="0" style="stop-color:#161440"/>
					<stop  offset="0.4643" style="stop-color:#181744"/>
					<stop  offset="0.809" style="stop-color:#1C1E4C"/>
					<stop  offset="0.8458" style="stop-color:#1C2656"/>
					<stop  offset="1" style="stop-color:#1D437F"/>
				</linearGradient>
				<path class="st6" d="M573.1,61.7c0,0,0-0.1,0-0.1C573,61.6,573,61.6,573.1,61.7c0,0.3,0.1,1.2,0.2,1.8c0.1-0.3,0.3-0.6,0.4-0.9
					c0.1-0.2,0-0.3,0-0.3C573.4,62.1,573.1,61.9,573.1,61.7z"/>
				
					<linearGradient id="SVGID_6_" gradientUnits="userSpaceOnUse" x1="715.2168" y1="-2222.9399" x2="715.2168" y2="-2124.167" gradientTransform="matrix(0.7 0 0 -0.7 77.0153 -1471.7847)">
					<stop  offset="0" style="stop-color:#161440"/>
					<stop  offset="0.4643" style="stop-color:#181744"/>
					<stop  offset="0.809" style="stop-color:#1C1E4C"/>
					<stop  offset="0.8458" style="stop-color:#1C2656"/>
					<stop  offset="1" style="stop-color:#1D437F"/>
				</linearGradient>
				<path class="st7" d="M578,55.2c0,0.5,0.4,0.5,0.7,0.1c0.1-0.1,0.2-0.2,0.3-0.4c-0.1-0.1-0.2-0.2-0.3-0.3
					c-0.4-0.5-1.3-1.5-2.3-2.3C577.3,53.1,577.9,54.2,578,55.2z"/>
				
					<linearGradient id="SVGID_7_" gradientUnits="userSpaceOnUse" x1="660.6596" y1="-2223.0337" x2="660.6596" y2="-2124.0359" gradientTransform="matrix(0.7 0 0 -0.7 77.0153 -1471.7847)">
					<stop  offset="0" style="stop-color:#161440"/>
					<stop  offset="0.4643" style="stop-color:#181744"/>
					<stop  offset="0.809" style="stop-color:#1C1E4C"/>
					<stop  offset="0.8458" style="stop-color:#1C2656"/>
					<stop  offset="1" style="stop-color:#1D437F"/>
				</linearGradient>
				<path class="st8" d="M540.1,54.8c0.1-0.2,0.3-0.3,0.4-0.5c-0.5-1.7-1.4-3.3-2-3.9c0.7,1,1.1,2.4,1,4.3
					C539.5,55.2,539.9,55.2,540.1,54.8z"/>
				
					<linearGradient id="SVGID_8_" gradientUnits="userSpaceOnUse" x1="744.5453" y1="-2155.6782" x2="744.5453" y2="-2155.6648" gradientTransform="matrix(0.7 0 0 -0.7 77.0153 -1471.7847)">
					<stop  offset="0" style="stop-color:#161440"/>
					<stop  offset="0.4643" style="stop-color:#181744"/>
					<stop  offset="0.809" style="stop-color:#1C1E4C"/>
					<stop  offset="0.8458" style="stop-color:#1C2656"/>
					<stop  offset="1" style="stop-color:#1D437F"/>
				</linearGradient>
				<polygon class="st9" points="598.2,37.2 598.2,37.2 598.2,37.2 				"/>
				
					<linearGradient id="SVGID_9_" gradientUnits="userSpaceOnUse" x1="699.88" y1="-2222.9902" x2="699.88" y2="-2124.0791" gradientTransform="matrix(0.7 0 0 -0.7 77.0153 -1471.7847)">
					<stop  offset="0" style="stop-color:#161440"/>
					<stop  offset="0.4643" style="stop-color:#181744"/>
					<stop  offset="0.809" style="stop-color:#1C1E4C"/>
					<stop  offset="0.8458" style="stop-color:#1C2656"/>
					<stop  offset="1" style="stop-color:#1D437F"/>
				</linearGradient>
				<path class="st10" d="M561.1,72.4c0.3,0.2,0.6,0.3,1,0.3c-0.1-0.4-0.2-0.9-0.2-1.3c0-3.2,1-6.4,3.5-9.5c3.1-3.8,6.3-5.7,8.6-4.7
					c-0.1-0.8-0.6-1.6-1.5-2c-2.3-1.1-5.7,0.9-8.8,4.7c-2.6,3.1-4,6.3-4,9.4C559.8,70.6,560.2,71.9,561.1,72.4z"/>
				
					<linearGradient id="SVGID_10_" gradientUnits="userSpaceOnUse" x1="614.3474" y1="-2222.9563" x2="614.3474" y2="-2124.1191" gradientTransform="matrix(0.7 0 0 -0.7 77.0153 -1471.7847)">
					<stop  offset="0" style="stop-color:#161440"/>
					<stop  offset="0.4643" style="stop-color:#181744"/>
					<stop  offset="0.809" style="stop-color:#1C1E4C"/>
					<stop  offset="0.8458" style="stop-color:#1C2656"/>
					<stop  offset="1" style="stop-color:#1D437F"/>
				</linearGradient>
				<path class="st11" d="M513.2,55.9c0.4-0.2,0.5-0.4,0.4-0.8c-0.2-0.6-0.6-2.1-0.7-2.5l0,0c0.1,0.3,0,0.6-0.4,0.7
					c-3.5,1.3-6.9,3.4-9.3,6.6c-2.7,3.6-3.5,8-1.6,10.6c0.4,0.6,1,1,1.5,1.3c-1-3-0.3-7.1,2-10.2C507.5,58.4,510.1,57.2,513.2,55.9z
					"/>
				
					<linearGradient id="SVGID_11_" gradientUnits="userSpaceOnUse" x1="657.0953" y1="-2222.9658" x2="657.0953" y2="-2124.1077" gradientTransform="matrix(0.7 0 0 -0.7 77.0153 -1471.7847)">
					<stop  offset="0" style="stop-color:#161440"/>
					<stop  offset="0.4643" style="stop-color:#181744"/>
					<stop  offset="0.809" style="stop-color:#1C1E4C"/>
					<stop  offset="0.8458" style="stop-color:#1C2656"/>
					<stop  offset="1" style="stop-color:#1D437F"/>
				</linearGradient>
				<path class="st12" d="M551.8,67.1c-0.8,0.6-1.9,1.3-3.2,1.7c-1.7,0.6-2.4,0.8-3.9,0.8c-1.9,0-3.7-0.8-4.9-2.7
					c-0.7-1-1-2.6-1-3.7c0-0.1-0.2-0.4-0.3-0.1c-3.2,4.9-6.2,9.7-9.4,14.7c-0.2,0.2-0.3,0.4-0.7,0.4c-2,0-4.2,0-6.3,0
					c-0.2,0-0.4-0.1-0.4-0.3c0.2,0.8,0.4,2.2,0.5,2.5c0,0.2,0.2,0.3,0.5,0.3c2.3,0,5.2,0,7.2,0c0.3,0,0.5-0.2,0.7-0.4
					c2.9-4.6,6-9.5,9-14.1c0.7,2.3,1,3.4,2.2,4.4c1.2,1.1,2.4,1.4,4,1.4c1.5,0,3-0.6,4.8-1.3c0.6-0.3,1.2-0.6,1.7-0.9
					c0-0.8,0.1-1.7,0.2-2.5C552.4,67.3,552.3,66.7,551.8,67.1z"/>
				
					<linearGradient id="SVGID_12_" gradientUnits="userSpaceOnUse" x1="709.3054" y1="-2222.9573" x2="709.3054" y2="-2124.104" gradientTransform="matrix(0.7 0 0 -0.7 77.0153 -1471.7847)">
					<stop  offset="0" style="stop-color:#161440"/>
					<stop  offset="0.4643" style="stop-color:#181744"/>
					<stop  offset="0.809" style="stop-color:#1C1E4C"/>
					<stop  offset="0.8458" style="stop-color:#1C2656"/>
					<stop  offset="1" style="stop-color:#1D437F"/>
				</linearGradient>
				<path class="st13" d="M594.1,65.3c0,0.1-0.1,0.2-0.1,0.3c-3.1,3.8-6.5,7.3-9.8,9.8c-5.1,3.9-10.1,4.9-12.6,2.4
					c-0.9-0.9-1.5-2.3-1.5-3.4c0-0.6-0.3-0.6-0.6-0.3c-3,2.9-8.2,6.2-12.9,3.9c-2.4-1.2-3.7-3.5-4.2-6c0,0,0,0.1,0,0.1
					c0.3,1.8,0.7,4.3,1.5,5.9c0.5,1,1.8,2.2,2.5,2.6c4.2,2.1,10.2-0.3,14-4c0,0,0,0,0.1-0.1c0.2,0.7,0.4,1.5,0.4,1.6
					c0.3,0.9,0.7,1.7,1,2.1c2.6,3,8.2,1.6,14-2.9c3.3-2.5,5.7-5,8.6-8.5c0.1-0.1,0.1-0.3,0-0.7C594.5,67.4,594.3,66,594.1,65.3z"/>
				
					<linearGradient id="SVGID_13_" gradientUnits="userSpaceOnUse" x1="675.8057" y1="-2223.0242" x2="675.8057" y2="-2123.9915" gradientTransform="matrix(0.7 0 0 -0.7 77.0153 -1471.7847)">
					<stop  offset="0" style="stop-color:#161440"/>
					<stop  offset="0.4643" style="stop-color:#181744"/>
					<stop  offset="0.809" style="stop-color:#1C1E4C"/>
					<stop  offset="0.8458" style="stop-color:#1C2656"/>
					<stop  offset="1" style="stop-color:#1D437F"/>
				</linearGradient>
				<path class="st14" d="M551.8,62c1.6-0.8,2.9-2.6,2.8-5.5c-0.1-1.4-0.5-2.9-1.2-4.2c0.5,0.9,0.7,1.9,0.5,3
					c-0.3,1.9-1.3,3.5-3,4.4c-1.5,0.7-3.2,0.6-4.4-0.5c-0.4-0.3-0.6-0.8-0.8-1.2c0.3,1.4,0.6,2.5,1,3
					C547.7,62.7,549.6,63.1,551.8,62z"/>
				
					<linearGradient id="SVGID_14_" gradientUnits="userSpaceOnUse" x1="729.7048" y1="-2222.9551" x2="729.7048" y2="-2124.1316" gradientTransform="matrix(0.7 0 0 -0.7 77.0153 -1471.7847)">
					<stop  offset="0" style="stop-color:#161440"/>
					<stop  offset="0.4643" style="stop-color:#181744"/>
					<stop  offset="0.809" style="stop-color:#1C1E4C"/>
					<stop  offset="0.8458" style="stop-color:#1C2656"/>
					<stop  offset="1" style="stop-color:#1D437F"/>
				</linearGradient>
				<path class="st15" d="M598.9,40.6c-0.1-0.3-0.7-3.1-0.7-3.4c0,0.1,0,0.2,0,0.3c-1,1.7-20,30.6-21.2,33.6c-0.4,0.9-0.4,1.7,0,2.2
					c0.4,0.5,1,0.7,1.6,0.7c0.1-0.4,0.2-0.8,0.4-1.2c1.2-3,19-30,20-31.7C599,40.9,598.9,40.7,598.9,40.6z"/>
				
					<linearGradient id="SVGID_15_" gradientUnits="userSpaceOnUse" x1="634.2954" y1="-2222.9465" x2="634.2954" y2="-2124.1355" gradientTransform="matrix(0.7 0 0 -0.7 77.0153 -1471.7847)">
					<stop  offset="0" style="stop-color:#161440"/>
					<stop  offset="0.4643" style="stop-color:#181744"/>
					<stop  offset="0.809" style="stop-color:#1C1E4C"/>
					<stop  offset="0.8458" style="stop-color:#1C2656"/>
					<stop  offset="1" style="stop-color:#1D437F"/>
				</linearGradient>
				<path class="st16" d="M519.4,50.9c0,0.1,0.1,0.1,0.2,0.2c1.2,1.7,1.8,4.1,1.8,6.5c0.1,0.5,0.3,0.5,0.5,0.3
					c0.2-0.2,0.5-0.5,0.7-0.7c-0.3-1.3-0.9-2.5-1.4-3.7C521,53.1,520.2,51.6,519.4,50.9z"/>
				
					<linearGradient id="SVGID_16_" gradientUnits="userSpaceOnUse" x1="618.8087" y1="-2222.9302" x2="618.8087" y2="-2124.7922" gradientTransform="matrix(0.7 0 0 -0.7 77.0153 -1471.7847)">
					<stop  offset="0" style="stop-color:#161440"/>
					<stop  offset="0.4643" style="stop-color:#181744"/>
					<stop  offset="0.809" style="stop-color:#1C1E4C"/>
					<stop  offset="0.8458" style="stop-color:#1C2656"/>
					<stop  offset="1" style="stop-color:#1D437F"/>
				</linearGradient>
				<path class="st17" d="M529.9,59.3c1.3-1.1,2.8-1.9,3.7-1.5c0.5-1.4,0.3-2.2-0.3-2.6c-0.9-0.6-2.7,0.3-4.2,1.4
					c-4.1,3.1-7.5,7.9-9.3,10.1c-1,1.3-2,3.2-4.7,6.1c-4.2,4.6-9.8,7.2-15.2,5.4c-2.9-1-5.1-3.4-5.9-6.3c-0.1-0.6-0.5-0.7-0.8-0.3
					c-0.9,1.1-2.6,2.7-4.1,3.7c-0.2,0.1-0.6,0.4-0.9,0.2c-0.3-0.2-1.4-1.7-1.6-2.1c0-0.1,0-0.1,0-0.2c0,0,0,0,0,0
					c0.4,1.9,0.4,2.1,1,3c0.6,1,1.2,1.7,1.3,1.7c0.3,0.2,0.7,0,0.9-0.1c1.1-0.6,3.4-2.3,4.4-3.5c0.3-0.3,0.6-0.1,0.7,0.2
					c0.4,1.3,1,2.3,1.7,3.3c0.7,1.2,2.2,2.4,4.1,2.9c2.4,0.7,5.1,0.8,8.5-0.5c2.8-1.1,5.7-3.2,7.9-5.7c2.7-2.9,3.7-4.8,4.7-6.1
					C523.3,66.3,526.1,62.5,529.9,59.3z"/>
				
					<linearGradient id="SVGID_17_" gradientUnits="userSpaceOnUse" x1="544.2772" y1="-2222.9265" x2="544.2772" y2="-2124.1526" gradientTransform="matrix(0.7 0 0 -0.7 77.0153 -1471.7847)">
					<stop  offset="0" style="stop-color:#161440"/>
					<stop  offset="0.4643" style="stop-color:#181744"/>
					<stop  offset="0.809" style="stop-color:#1C1E4C"/>
					<stop  offset="0.8458" style="stop-color:#1C2656"/>
					<stop  offset="1" style="stop-color:#1D437F"/>
				</linearGradient>
				<path class="st18" d="M455.4,66.8c-0.5-2.1,0-4.4,0.9-6.1c1.4-2.8,3.3-4.1,5.2-5.3c0.8-0.5,1.2-1,0.7-2.4
					c-0.1-0.4-0.2-1.1-0.4-1.7c0.1,0.6-0.3,1.1-0.8,1.4c-2.3,1.2-5.1,3.2-6.4,5.9c-1.1,2.2-1.3,4.9,0.4,7.5
					C455.1,66.4,455.2,66.6,455.4,66.8z"/>
				
					<linearGradient id="SVGID_18_" gradientUnits="userSpaceOnUse" x1="588.5369" y1="-2222.9719" x2="588.5369" y2="-2124.125" gradientTransform="matrix(0.7 0 0 -0.7 77.0153 -1471.7847)">
					<stop  offset="0" style="stop-color:#161440"/>
					<stop  offset="0.4643" style="stop-color:#181744"/>
					<stop  offset="0.809" style="stop-color:#1C1E4C"/>
					<stop  offset="0.8458" style="stop-color:#1C2656"/>
					<stop  offset="1" style="stop-color:#1D437F"/>
				</linearGradient>
				<path class="st19" d="M471.5,38c-0.5-3.3,2-8.6,8.4-10.7c8.4-2.8,17.7-1,25.2,0.6c1.1-0.7,2-1.1,2.9-1.6
					c0.4-0.2-0.1-0.5-0.2-0.5c-9.7-1.8-19.7-4.2-29.3-0.6c-6.7,2.5-9.6,7.8-8.2,11.3C470.5,37.1,470.9,37.6,471.5,38z"/>
				
					<linearGradient id="SVGID_19_" gradientUnits="userSpaceOnUse" x1="575.6344" y1="-2222.9595" x2="575.6344" y2="-2124.1316" gradientTransform="matrix(0.7 0 0 -0.7 77.0153 -1471.7847)">
					<stop  offset="0" style="stop-color:#161440"/>
					<stop  offset="0.4643" style="stop-color:#181744"/>
					<stop  offset="0.809" style="stop-color:#1C1E4C"/>
					<stop  offset="0.8458" style="stop-color:#1C2656"/>
					<stop  offset="1" style="stop-color:#1D437F"/>
				</linearGradient>
				<path class="st20" d="M497,48.3c3.2-0.4,6-0.6,8.9-0.8c0.8-0.1,1.5-0.2,1.8,0.1c1,1,2.2,1.9,3,2.4c0.5,0,1,0.1,1.3,0.4
					c0.3-0.1,0.6-0.2,0.8-0.4c0.3-0.4,0.4-0.8,0.3-1.1c-0.1-0.7-0.3-2.1-0.5-2.5c0.2,0.3,0,0.7-0.3,1.1c-0.2,0.3-0.6,0.5-1,0.5
					c-0.4,0-0.6-0.1-1-0.4c-0.9-0.5-2.1-1.3-2.9-2.3c-0.3-0.3-0.4-0.3-1.1-0.3c-3,0.2-7.7,0.6-10.9,1c-0.8,0.1-0.9,0.3-1,0.5
					c-5.1,8.4-10.5,17.4-16.4,23.4c-6.4,6.5-11.7,8.2-17.3,8.2c-6.5,0-12.3-3.7-13.7-10.1c0.8,3.6,3.1,8,5.8,9.9
					c2.7,1.9,5.4,2.6,8.6,2.6c6.4,0.1,12.3-2.5,18.4-8.8c6-6.1,11.1-14.5,16.2-22.8C496,48.5,496.2,48.4,497,48.3z"/>
				
					<linearGradient id="SVGID_20_" gradientUnits="userSpaceOnUse" x1="577.9816" y1="-2223.0327" x2="577.9816" y2="-2124.0344" gradientTransform="matrix(0.7 0 0 -0.7 77.0153 -1471.7847)">
					<stop  offset="0" style="stop-color:#161440"/>
					<stop  offset="0.4643" style="stop-color:#181744"/>
					<stop  offset="0.809" style="stop-color:#1C1E4C"/>
					<stop  offset="0.8458" style="stop-color:#1C2656"/>
					<stop  offset="1" style="stop-color:#1D437F"/>
				</linearGradient>
				<path class="st21" d="M486.6,47.2c-2.9,0.1-5.4,0.9-7.8,2.8c-0.7,0.5-1.7,0.4-2.2-0.2c-0.1-0.2-0.2-0.5-0.2-0.7
					c-0.1,1.1,0.4,2.7,0.7,3.2c0.4,0.6,1.5,0.9,2.3,0.2c1.9-1.4,3.7-2.3,5.7-2.6c0.5-0.7,1-1.4,1.7-2.3c0.1-0.1,0.1-0.2,0-0.2
					C486.8,47.3,486.7,47.3,486.6,47.2z"/>
				
					<linearGradient id="SVGID_21_" gradientUnits="userSpaceOnUse" x1="689.5453" y1="-2224.3442" x2="689.5453" y2="-2123.9417" gradientTransform="matrix(0.7 0 0 -0.7 77.0153 -1471.7847)">
					<stop  offset="0" style="stop-color:#161440"/>
					<stop  offset="0.4643" style="stop-color:#181744"/>
					<stop  offset="0.809" style="stop-color:#1C1E4C"/>
					<stop  offset="0.8458" style="stop-color:#1C2656"/>
					<stop  offset="1" style="stop-color:#1D437F"/>
				</linearGradient>
				<path class="st22" d="M559.6,23.4c0,0,0.1,0.1,0.1,0.2C559.7,23.5,559.7,23.4,559.6,23.4z"/>
				
					<linearGradient id="SVGID_22_" gradientUnits="userSpaceOnUse" x1="645.2391" y1="-2222.9387" x2="645.2391" y2="-2124.1394" gradientTransform="matrix(0.7 0 0 -0.7 77.0153 -1471.7847)">
					<stop  offset="0" style="stop-color:#161440"/>
					<stop  offset="0.4643" style="stop-color:#181744"/>
					<stop  offset="0.809" style="stop-color:#1C1E4C"/>
					<stop  offset="0.8458" style="stop-color:#1C2656"/>
					<stop  offset="1" style="stop-color:#1D437F"/>
				</linearGradient>
				<path class="st23" d="M497,42.5c-0.1,0.1,0,0.3,0.1,0.3c0.9,0,1.8-0.1,2.6-0.1c3.1-4.9,6.5-7.7,11.6-11.5
					c0.4-0.3,0.8-0.5,0.6-1.6c10.3,2.3,18.1,6.1,31.3,6.1c4,0,9.5-1.3,12.6-3.1c3.4-2.1,4.3-3.6,4.5-5.2c0-0.5-0.1-1.3-0.2-1.6
					c-0.1-0.5-0.2-1.2-0.3-1.8c0,0.2,0.1,0.4,0.1,0.7c-0.1,1.9-1.5,3.6-5.1,5.6c-4,2.2-8.2,2.9-12.6,2.9
					c-10.6,0.1-20.5-4.1-30.8-6.3c0,0.5,0.1,1-0.3,1.3C505.6,32.2,500.4,36.5,497,42.5z"/>
				
					<linearGradient id="SVGID_23_" gradientUnits="userSpaceOnUse" x1="619.5853" y1="-2222.8411" x2="619.5853" y2="-2124.1833" gradientTransform="matrix(0.7 0 0 -0.7 77.0153 -1471.7847)">
					<stop  offset="0" style="stop-color:#161440"/>
					<stop  offset="0.4643" style="stop-color:#181744"/>
					<stop  offset="0.809" style="stop-color:#1C1E4C"/>
					<stop  offset="0.8458" style="stop-color:#1C2656"/>
					<stop  offset="1" style="stop-color:#1D437F"/>
				</linearGradient>
				<path class="st24" d="M510.8,39.6c0.4-0.4,1-0.5,1.4-0.5c0.4-0.8,0.5-1.7,0-2.1c-0.5-0.4-1.2-0.3-1.8,0.1
					c-0.1,0.1-0.3,0.3-0.4,0.4c-1,1-1.3,2.4-1.2,3.5c0.1,0.4,0.3,0.5,0.5,0.5c0.2,0,0.4-0.1,0.6-0.2C510,40.7,510.2,40.1,510.8,39.6
					z"/>
				
					<linearGradient id="SVGID_24_" gradientUnits="userSpaceOnUse" x1="622.7759" y1="-2222.9065" x2="622.7759" y2="-2124.1565" gradientTransform="matrix(0.7 0 0 -0.7 77.0153 -1471.7847)">
					<stop  offset="0" style="stop-color:#161440"/>
					<stop  offset="0.4643" style="stop-color:#181744"/>
					<stop  offset="0.809" style="stop-color:#1C1E4C"/>
					<stop  offset="0.8458" style="stop-color:#1C2656"/>
					<stop  offset="1" style="stop-color:#1D437F"/>
				</linearGradient>
				<path class="st25" d="M515.1,43.1c0.5-1.1,0.8-1.9,0.5-3.8c-0.2-1.3-0.4-2.5-0.8-3c0.7,1.4,0.4,3.1-0.3,4.5
					c-1,1.9-2.6,2.9-4.1,3.3c0,0-0.3,0.1-0.3,0.4c0,0.3,1.1,1,1.8,1.5c0.1,0,0.2-0.1,0.2-0.1C513,45.5,514.3,44.7,515.1,43.1z"/>
				
					<linearGradient id="SVGID_25_" gradientUnits="userSpaceOnUse" x1="568.5902" y1="-2222.9229" x2="568.5902" y2="-2124.1382" gradientTransform="matrix(0.7 0 0 -0.7 77.0153 -1471.7847)">
					<stop  offset="0" style="stop-color:#161440"/>
					<stop  offset="0.4643" style="stop-color:#181744"/>
					<stop  offset="0.809" style="stop-color:#1C1E4C"/>
					<stop  offset="0.8458" style="stop-color:#1C2656"/>
					<stop  offset="1" style="stop-color:#1D437F"/>
				</linearGradient>
				<path class="st26" d="M467.9,46.6c1.4,0.9,3.2,1.4,5.2,1.3c6.8-0.2,12-5.8,13.7-10.6c0.5-1.3,0.1-2.6-0.1-3.6
					c-0.1-0.4-0.2-1.2-0.5-1.8l0,0c0.2,0.5,0.2,1.2-0.2,2.1c-2.8,6.6-8.2,11.8-14.7,12.1c-4,0.1-6.9-1.9-8.3-4.9
					C464.1,43.5,466.1,45.5,467.9,46.6z"/>
			</g>
		</g>
		<g>
			<path class="st27" d="M522.1,2.8c-71.9,0-129.5,21.6-129.5,48.6c0,26.9,58.1,48.5,129.5,48.5c71.4,0,129.5-21.8,129.5-48.6
				S593.5,2.8,522.1,2.8z M393.5,51.9c0-5.7,2.5-11.3,7.7-16.7C419.7,16.6,468.3,4,521.9,3.7c70.9-0.3,128.7,20.8,128.8,47.1
				c0,5.7-2.6,11.3-7.9,16.6c-18.5,18.7-67,31.4-120.5,31.6C451.4,99.4,393.6,78.2,393.5,51.9z M650.8,47.6c0,0.2,0.1,0.5,0.1,0.7
				C650.9,48.1,650.8,47.9,650.8,47.6z"/>
		</g>
		<g>
			<g>
				
					<linearGradient id="SVGID_26_" gradientUnits="userSpaceOnUse" x1="493.6062" y1="-19.5965" x2="463.6836" y2="92.076" gradientTransform="matrix(1 0 0 -1 0 103.5294)">
					<stop  offset="0" style="stop-color:#A09E9E"/>
					<stop  offset="0.35" style="stop-color:#D6D5D2"/>
					<stop  offset="0.65" style="stop-color:#D6D5D2"/>
					<stop  offset="1" style="stop-color:#A09E9E"/>
				</linearGradient>
				<path class="st28" d="M400.9,35c18.7-18.8,67.3-31.5,120.9-31.7c7.4,0,14.7,0.2,21.8,0.6c-7-0.4-14.2-0.7-21.6-0.7
					C450.5,3.2,393,24.7,393,51.4c0,1.3,0.1,2.5,0.4,3.8c-0.2-1.1-0.3-2.2-0.3-3.2C393,46.2,395.6,40.4,400.9,35z"/>
			</g>
			
				<linearGradient id="SVGID_27_" gradientUnits="userSpaceOnUse" x1="572.3679" y1="41.5171" x2="542.5925" y2="152.6403" gradientTransform="matrix(1 0 0 -1 0 103.5294)">
				<stop  offset="0" style="stop-color:#A09E9E"/>
				<stop  offset="0.35" style="stop-color:#D6D5D2"/>
				<stop  offset="0.65" style="stop-color:#D6D5D2"/>
				<stop  offset="1" style="stop-color:#A09E9E"/>
			</linearGradient>
			<path class="st29" d="M643.1,67.7c-18.6,18.7-67.2,31.5-120.8,31.7c-7.6,0-15-0.2-22.2-0.6c7.1,0.5,14.5,0.7,22,0.7
				c71.2,0,129.1-21.7,129.1-48.1c0-1-0.1-2-0.3-3c0.1,0.8,0.2,1.6,0.2,2.5C651.1,56.6,648.4,62.4,643.1,67.7z"/>
		</g>
		
			<linearGradient id="SVGID_28_" gradientUnits="userSpaceOnUse" x1="522.057" y1="101.8623" x2="522.057" y2="2.6519" gradientTransform="matrix(1 0 0 -1 0 103.5294)">
			<stop  offset="0" style="stop-color:#FFFFFF"/>
			<stop  offset="0.4682" style="stop-color:#FDFDFD"/>
			<stop  offset="0.6367" style="stop-color:#F6F6F7"/>
			<stop  offset="0.691" style="stop-color:#F2F2F3"/>
			<stop  offset="0.8" style="stop-color:#C9C5C2"/>
			<stop  offset="1" style="stop-color:#B1B0B1"/>
		</linearGradient>
		<path class="st30" d="M522.1,93.9c-67.5,0-122.2-19-122.2-42.5c0-23.5,54.7-42.5,122.2-42.5c67.5,0,122.2,19,122.2,42.5
			C644.2,74.9,589.5,93.9,522.1,93.9z M522.1,12.5c-65.1,0-117.9,17.4-117.9,38.8s52.8,38.8,117.9,38.8
			c65.1,0,117.9-17.4,117.9-38.8C640,29.9,587.2,12.5,522.1,12.5z"/>
		
			<linearGradient id="SVGID_29_" gradientUnits="userSpaceOnUse" x1="542.3669" y1="70.1451" x2="542.3669" y2="20.9492" gradientTransform="matrix(1 0 0 -1 0 103.5294)">
			<stop  offset="0" style="stop-color:#FFFFFF"/>
			<stop  offset="0.4074" style="stop-color:#FDFDFD"/>
			<stop  offset="0.5539" style="stop-color:#F7F6F6"/>
			<stop  offset="0.6582" style="stop-color:#ECEBEB"/>
			<stop  offset="0.691" style="stop-color:#E7E5E5"/>
			<stop  offset="0.8" style="stop-color:#DFE0DF"/>
			<stop  offset="1" style="stop-color:#C9C5C2"/>
		</linearGradient>
		<path class="st31" d="M598.1,37.5c0.2-0.3,0-0.5-0.4-0.5c-2,0-4.5,0-6.5,0c-0.5,0-0.7,0.1-1,0.5c-0.8,1.4-9.9,15.1-11.6,17.8
			c-0.3,0.4-0.7,0.4-0.7-0.1c-0.2-1.6-1.5-3.4-3.7-4.3c-1.6-0.7-3.2-0.8-4.9-0.6c-3,0.4-5.7,2-8,3.8c-3.6,2.7-6.6,6.2-10.6,8.8
			c-2.2,1.4-5.1,2.6-7.1,0.8c-1.8-1.7-1.6-5.3,1.2-8.2c0.3-0.3,0.6,0,0.6,0.2c-0.3,1.3,0.1,2.6,1,3.5c1.2,1.1,2.9,1.2,4.4,0.5
			c1.7-0.9,2.7-2.5,3-4.4c0.5-2.9-1.8-5.5-4.6-5.7c-2.3-0.2-4.5,0.6-6.6,2.4c-1.1,0.9-1.7,1.5-2.6,2.8c-0.2,0.3-0.6,0.4-0.6-0.1
			c0.1-3.7-1.4-5.8-4.5-5.9c-2.4-0.1-4.9,1.2-6.9,2.8c-2.2,1.7-4.1,4.1-6.1,6.3c-0.3,0.3-0.5,0.3-0.5-0.3c-0.1-2.5-0.7-4.8-1.8-6.5
			c-0.4-0.6-1.3-0.9-2-0.5c-0.3,0.2-1.5,0.7-2.3,1.4c-0.4,0.3-0.6,0.8-0.4,1.5c1.1,3.7,0.9,7.9-0.6,11.4c-1.4,3.3-4,6.2-7.2,7.2
			c-2.1,0.7-4.2,0.3-5.6-1.5c-1.8-2.5-1.1-6.9,1.6-10.6c2.4-3.2,5.9-5.3,9.3-6.6c0.4-0.2,0.5-0.4,0.4-0.8c-0.2-0.6-0.5-1.4-0.6-1.7
			c-0.3-0.8-1.2-1-2.3-0.9c-2.5,0.3-4.8,1.2-7,2.4c-5.9,3.2-8.8,9.2-10.1,12.5c-0.6,1.6-1.2,2.5-1.8,3.4c-0.9,1.2-2.1,2.2-4.2,4.1
			c-0.2,0.2-0.3,0.5-0.2,0.9c0.2,0.4,1.3,2,1.6,2.1c0.4,0.2,0.7-0.1,0.9-0.2c1.5-1,3.3-2.6,4.1-3.7c0.3-0.4,0.6-0.2,0.8,0.3
			c0.8,2.9,3,5.3,5.9,6.3c5.4,1.8,11-0.8,15.2-5.4c2.7-2.9,3.7-4.8,4.7-6.1c1.7-2.2,5.2-7,9.3-10.1c1.5-1.1,3.3-2,4.2-1.4
			c0.7,0.4,0.9,1.5-0.2,3.6c-4.2,7.6-10.3,16.6-11.4,18.7c-0.2,0.4,0,0.7,0.4,0.7c2.2,0,4.3,0,6.3,0c0.3,0,0.5-0.2,0.7-0.4
			c3.2-5,6.2-9.8,9.4-14.7c0.2-0.3,0.3-0.1,0.3,0.1c0.1,1.1,0.3,2.7,1,3.7c1.2,1.9,3,2.7,4.9,2.7c1.5,0,2.3-0.2,3.9-0.8
			c1.3-0.5,2.4-1.2,3.2-1.7c0.5-0.3,0.6,0.2,0.6,0.3c-0.7,4,0.2,8.7,4.1,10.6c4.7,2.3,9.9-0.9,12.9-3.9c0.3-0.3,0.6-0.3,0.6,0.3
			c0.1,1.1,0.6,2.5,1.5,3.4c2.5,2.5,7.6,1.5,12.6-2.4c3.3-2.5,6.7-6.1,9.8-9.8c0.1-0.2,0.2-0.4,0-0.6c-0.5-0.5-1.2-1.1-1.6-1.5
			c-0.2-0.2-0.5-0.1-0.7,0c-3.2,3-6,6.4-10.1,9.3c-1.4,1-3.6,1.8-4.6,0.4c-0.4-0.5-0.3-1.2,0-2.2C578.2,68,597.2,39.2,598.1,37.5z
			 M573.1,61.7c0,0.2,0.3,0.4,0.6,0.6c0.1,0,0.2,0.1,0,0.3c-0.8,1.7-1.5,2.7-2.5,4.2c-0.9,1.4-2,2.5-3.3,3.5
			c-1.9,1.6-4.6,3.3-6.8,2.2c-1-0.5-1.4-1.9-1.4-3c0-3.1,1.4-6.3,4-9.4c3.1-3.8,6.5-5.8,8.8-4.7c2.3,1.1,1.6,3.8,0.6,5.9
			C573,61.4,573,61.5,573.1,61.7z"/>
		
			<linearGradient id="SVGID_30_" gradientUnits="userSpaceOnUse" x1="503.2116" y1="88.8688" x2="503.2116" y2="20.6276" gradientTransform="matrix(1 0 0 -1 0 103.5294)">
			<stop  offset="0" style="stop-color:#FFFFFF"/>
			<stop  offset="0.4074" style="stop-color:#FDFDFD"/>
			<stop  offset="0.5539" style="stop-color:#F7F6F6"/>
			<stop  offset="0.6582" style="stop-color:#ECEBEB"/>
			<stop  offset="0.691" style="stop-color:#E7E5E5"/>
			<stop  offset="0.8" style="stop-color:#DFE0DF"/>
			<stop  offset="1" style="stop-color:#C9C5C2"/>
		</linearGradient>
		<path class="st32" d="M460.6,78.1c-7.1,0.1-13.3-4.3-14-11.9c-0.4-4.2,0.8-7.9,3.2-11c2.1-2.7,5.7-5,8.7-5.6
			c1-0.2,2.3-0.1,2.8,0.6c0.9,1,0.6,2.1-0.2,2.5c-2.3,1.2-5.1,3.2-6.4,5.9c-1.1,2.2-1.3,4.9,0.4,7.5c2.9,4.3,10.8,4.4,18.1-2.4
			c1.8-1.7,3.5-3.3,5.1-5.2c3.2-3.7,4.3-5.1,8.6-11.1c0.1-0.1,0.1-0.2,0-0.2c0-0.1-0.1-0.1-0.2-0.1c-2.9,0.1-5.4,0.9-7.8,2.8
			c-0.7,0.5-1.7,0.4-2.2-0.2c-0.5-0.8-0.1-1.8,0.7-2.3c3.9-2.7,8.2-3.2,12.6-4c0,0,0.3,0,0.5-0.3c1.8-2.3,3.1-4.4,5.1-6.7
			c1.9-2.4,4.4-4.5,6.3-6.2c2.7-2.3,4.4-3,6.1-4c0.4-0.2-0.1-0.5-0.2-0.5c-9.7-1.8-19.7-4.2-29.3-0.6c-6.7,2.5-9.6,7.8-8.2,11.3
			c1,2.5,4.3,2.9,7.4,1.4c2.5-1.3,4.9-3.3,6.6-5.9c0.9-1.5,2.9-0.4,1.9,2.1c-2.8,6.6-8.2,11.8-14.7,12.1c-5.6,0.2-9.1-3.9-9.1-9
			c0-10,11.1-16.5,22.8-17.5c14-1.2,27.3,2.6,41.3,4.3c10.7,1.3,20.9,1.3,31.7-1.2c1.3-0.3,2.2,0.5,2.1,1.8
			c-0.1,1.9-1.5,3.6-5.1,5.6c-4,2.2-8.2,2.9-12.6,2.9c-10.6,0.1-20.5-4.1-30.8-6.3c0,0.5,0.1,1-0.3,1.3c-5.7,4.2-10.8,8.4-14.2,14.4
			c-0.1,0.1,0,0.3,0.1,0.3c3-0.2,5.7-0.2,8.4-0.5c0.5,0,0.5-0.2,0.5-0.5c-0.3-2,0.3-4.4,2.2-6c1.8-1.7,4.2-1.8,5.7-0.7
			c1.7,1.4,1.6,3.8,0.6,5.6c-1,1.9-2.6,2.9-4.1,3.3c0,0-0.3,0.1-0.3,0.4c0.1,0.5,2.2,1.6,2.3,1.9c0.2,0.3,0.1,0.8-0.2,1.1
			c-0.2,0.3-0.6,0.5-1,0.5c-0.4,0-0.6-0.1-1-0.4c-0.9-0.5-2.1-1.3-2.9-2.3c-0.3-0.3-0.4-0.3-1.1-0.3c-3,0.2-7.7,0.6-10.9,1
			c-0.8,0.1-0.9,0.3-1,0.5c-5.1,8.4-10.5,17.4-16.4,23.4C471.5,76.4,466.2,78.1,460.6,78.1z M508.9,40.9c0.1,0.4,0.3,0.5,0.5,0.5
			c1-0.2,2-1,2.6-1.9c0.6-0.8,0.8-2,0.3-2.5c-0.5-0.4-1.3-0.3-1.9,0.2C509.1,38.3,508.8,39.8,508.9,40.9L508.9,40.9"/>
	</g>
</g>
</svg>
